<svg xmlns="http://www.w3.org/2000/svg" xmlns:xlink="http://www.w3.org/1999/xlink" width="17" height="16.258" viewBox="0 0 17 16.258"><defs><style>.a{fill:url(#a);}.b,.c{stroke:none;}.c{fill:#9a7a31;}</style><linearGradient id="a" x1="0.5" x2="0.5" y2="1" gradientUnits="objectBoundingBox"><stop offset="0" stop-color="#fac72a"/><stop offset="1" stop-color="#efa31f"/></linearGradient></defs><g class="a" transform="translate(-0.001 -1.047)"><path class="b" d="M 3.813596487045288 17.05448150634766 C 3.620496511459351 17.05448150634766 3.429006576538086 16.96408271789551 3.301366567611694 16.81267166137695 C 3.174936532974243 16.66269111633301 3.12394642829895 16.47149276733398 3.157796621322632 16.27430152893066 L 3.890066623687744 12.00403213500977 C 3.955086469650269 11.62618160247803 3.82987642288208 11.24051189422607 3.555096626281738 10.97252178192139 L 0.4525565505027771 7.948341846466064 C 0.2670365273952484 7.767422199249268 0.2040965408086777 7.512301921844482 0.2842265367507935 7.265912055969238 C 0.3642965257167816 7.019721984863281 0.5650865435600281 6.850572109222412 0.8213565349578857 6.813422203063965 L 5.10905647277832 6.190361976623535 C 5.488776683807373 6.135272026062012 5.816876411437988 5.896952152252197 5.986666679382324 5.552882194519043 L 7.904046535491943 1.667762041091919 C 8.018586158752441 1.435402035713196 8.24152660369873 1.296751976013184 8.500476837158203 1.296751976013184 C 8.759456634521484 1.296751976013184 8.982526779174805 1.435441970825195 9.097166061401367 1.667752027511597 L 11.01454639434814 5.552892208099365 C 11.18433666229248 5.896952152252197 11.51243686676025 6.135272026062012 11.8922061920166 6.190371990203857 L 16.17976570129395 6.813412189483643 C 16.43617630004883 6.850701808929443 16.63704681396484 7.020051956176758 16.71707725524902 7.266421794891357 C 16.79705619812012 7.512701988220215 16.73411560058594 7.767611980438232 16.54868698120117 7.94832181930542 L 13.4461669921875 10.97247219085693 C 13.17133617401123 11.24052238464355 13.04612636566162 11.62619209289551 13.11116695404053 12.00417232513428 L 13.84341621398926 16.27426147460938 C 13.87724685668945 16.47140121459961 13.82628631591797 16.66251182556152 13.69990634918213 16.81244277954102 C 13.57223606109619 16.96390151977539 13.38066673278809 17.0543327331543 13.18745613098145 17.05434226989746 C 13.08095645904541 17.05434226989746 12.97673606872559 17.0279712677002 12.87770652770996 16.97594261169434 L 9.042996406555176 14.96001243591309 C 8.87636661529541 14.87249183654785 8.688836097717285 14.82625198364258 8.500606536865234 14.82625198364258 C 8.312366485595703 14.82625198364258 8.124836921691895 14.87249183654785 7.958286762237549 14.9599723815918 L 4.123446464538574 16.97597122192383 C 4.024376392364502 17.02807235717773 3.920146465301514 17.05448150634766 3.813596487045288 17.05448150634766 Z"/><path class="c" d="M 8.500466346740723 1.546741485595703 C 8.422876358032227 1.546741485595703 8.231306076049805 1.569292068481445 8.128226280212402 1.778402328491211 L 6.210856437683105 5.663512229919434 C 6.004636764526367 6.081412315368652 5.606146812438965 6.370862007141113 5.14500617980957 6.437762260437012 L 0.8572273254394531 7.06084156036377 C 0.6266574859619141 7.09426212310791 0.5459671020507812 7.269461631774902 0.5219669342041016 7.343232154846191 C 0.4979457855224609 7.417101860046387 0.4600963592529297 7.606501579284668 0.6270465850830078 7.769311904907227 L 3.729656219482422 10.79355239868164 C 4.063356399536133 11.11902236938477 4.215426445007324 11.58744239807129 4.136476516723633 12.04629135131836 L 3.404186248779297 16.31659126281738 C 3.377056121826172 16.47465133666992 3.437246322631836 16.58598136901855 3.49251651763916 16.65154266357422 C 3.573246955871582 16.74731254577637 3.693276405334473 16.80448150634766 3.813596725463867 16.80448150634766 C 3.879186630249023 16.80448150634766 3.944266319274902 16.78774261474609 4.007116317749023 16.75469207763672 L 7.842006683349609 14.73866176605225 C 8.044266700744629 14.63241195678711 8.272006988525391 14.57625198364258 8.500606536865234 14.57625198364258 C 8.729196548461914 14.57625198364258 8.956936836242676 14.63241195678711 9.159326553344727 14.73873233795166 L 12.99396705627441 16.7546215057373 C 13.05676651000977 16.78761291503906 13.12187671661377 16.80434226989746 13.18747711181641 16.80434226989746 C 13.30788612365723 16.80434226989746 13.42798614501953 16.74714279174805 13.50874710083008 16.65134239196777 C 13.5639762878418 16.5858211517334 13.62413597106934 16.47455215454102 13.59700679779053 16.3165225982666 L 12.86478614807129 12.04657173156738 C 12.78578662872314 11.58745193481445 12.93784713745117 11.11904144287109 13.27166652679443 10.79344177246094 L 16.37419700622559 7.769271850585938 C 16.541015625 7.606701850891113 16.50326728820801 7.417471885681152 16.47929573059082 7.34365177154541 C 16.45530700683594 7.269791603088379 16.37458610534668 7.094371795654297 16.14380645751953 7.060811996459961 L 11.85631656646729 6.437782287597656 C 11.39506721496582 6.370862007141113 10.9965763092041 6.081412315368652 10.79036712646484 5.663532257080078 L 8.872976303100586 1.778392791748047 C 8.769806861877441 1.569311141967773 8.578096389770508 1.546741485595703 8.500466346740723 1.546741485595703 M 8.500471115112305 1.046747207641602 C 8.826936721801758 1.046747207641602 9.153446197509766 1.21687126159668 9.321356773376465 1.557121276855469 L 11.23873710632324 5.442252159118652 C 11.3720760345459 5.712462425231934 11.6298770904541 5.899691581726074 11.9281063079834 5.942961692810059 L 16.21570587158203 6.566012382507324 C 16.96678733825684 6.67523193359375 17.26642608642578 7.597931861877441 16.7231559753418 8.127362251281738 L 13.62066650390625 11.15149211883545 C 13.40506649017334 11.36178207397461 13.30647659301758 11.66497230529785 13.35754680633545 11.96178245544434 L 14.08981704711914 16.23201179504395 C 14.19139099121094 16.82378005981445 13.72099304199219 17.3043384552002 13.18747425079346 17.3043384552002 C 13.04672813415527 17.3043384552002 12.90163421630859 17.27091407775879 12.76143646240234 17.19726181030273 L 8.926666259765625 15.18130207061768 C 8.793336868286133 15.11126708984375 8.646971702575684 15.07625007629395 8.500605583190918 15.07625007629395 C 8.354239463806152 15.07625007629395 8.207871437072754 15.11126708984375 8.074536323547363 15.18130207061768 L 4.239776611328125 17.19726181030273 C 4.099577903747559 17.27098846435547 3.954344749450684 17.30447959899902 3.8135986328125 17.30447959899902 C 3.28007984161377 17.30447959899902 2.809822082519531 16.82378005981445 2.911396980285645 16.23201179504395 L 3.64366626739502 11.96178245544434 C 3.694736480712891 11.66497230529785 3.596156120300293 11.36178207397461 3.380546569824219 11.15149211883545 L 0.278045654296875 8.127362251281738 C -0.2652130126953125 7.59758186340332 0.03443717956542969 6.674881935119629 0.7854957580566406 6.566012382507324 L 5.07310676574707 5.942961692810059 C 5.371336936950684 5.899691581726074 5.629136085510254 5.712462425231934 5.762476921081543 5.442252159118652 L 7.679856300354004 1.557121276855469 C 7.847586631774902 1.21687126159668 8.174006462097168 1.046747207641602 8.500471115112305 1.046747207641602 Z"/></g></svg>